<?xml version="1.0" encoding="UTF-8" standalone="no"?>
<!DOCTYPE svg PUBLIC "-//W3C//DTD SVG 1.1//EN" "http://www.w3.org/Graphics/SVG/1.1/DTD/svg11.dtd">
<svg width="100%" height="100%" viewBox="0 0 392 234" version="1.1" xmlns="http://www.w3.org/2000/svg" xmlns:xlink="http://www.w3.org/1999/xlink" xml:space="preserve" xmlns:serif="http://www.serif.com/" style="fill-rule:evenodd;clip-rule:evenodd;stroke-linejoin:round;stroke-miterlimit:2;">
    <rect x="0" y="0" width="391.1" height="233.4"/>
    <g>
        <g>
            <g>
                <path d="M201.3,100.6L212.4,97L195.4,66.6L162.4,125.6L184.1,115.6L195.4,84.1L201.3,100.6Z" style="fill:white;fill-rule:nonzero;"/>
                <path d="M204.7,110.2L206.6,115.6L228.4,125.6L215.2,102L204.7,110.2Z" style="fill:white;fill-rule:nonzero;"/>
            </g>
            <path d="M211.8,96L200.8,99.3L188.6,102.9L172.3,107.8L162.4,125.6L184.2,115.5L203.4,106.6L214.8,101.3L252.7,83.7L211.8,96Z" style="fill:url(#_Linear1);fill-rule:nonzero;"/>
        </g>
    </g>
    <g transform="matrix(1,0,0,1,51.9884,124.642)">
        <text x="89.895px" y="25.005px" style="font-family:'JosefinSans-SemiBold', 'Josefin Sans';font-weight:600;font-size:18px;fill:white;">A P E X I V E</text>
    </g>
    <defs>
        <linearGradient id="_Linear1" x1="0" y1="0" x2="1" y2="0" gradientUnits="userSpaceOnUse" gradientTransform="matrix(90.2741,0,0,90.2741,162.415,104.652)"><stop offset="0" style="stop-color:rgb(56,179,204);stop-opacity:1"/><stop offset="0.36" style="stop-color:rgb(209,212,173);stop-opacity:1"/><stop offset="0.69" style="stop-color:rgb(173,75,113);stop-opacity:1"/><stop offset="1" style="stop-color:rgb(67,40,65);stop-opacity:1"/></linearGradient>
    </defs>
</svg>
